M48
;DRILL file {KiCad 4.0.7} date 08/12/18 13:27:02
;FORMAT={-:-/ absolute / inch / decimal}
FMAT,2
INCH,TZ
T1C0.012
T2C0.028
T3C0.030
T4C0.040
%
G90
G05
M72
T1
X4.1621Y-3.775
X4.3266Y-4.0341
X4.355Y-3.795
X4.425Y-3.595
X4.485Y-4.125
X4.495Y-3.925
X4.525Y-4.075
X4.545Y-3.785
X4.5785Y-4.2152
X4.585Y-3.915
X4.6061Y-3.7171
X4.735Y-3.601
X4.735Y-3.6364
X4.735Y-4.165
X4.736Y-3.6719
X4.7596Y-3.601
X4.7596Y-3.6364
X4.7596Y-3.6719
X4.805Y-3.975
X4.805Y-4.095
X4.805Y-4.215
T2
X4.0313Y-4.3293
T3
X4.0794Y-3.545
X4.1581Y-3.545
X4.2369Y-3.545
X4.3156Y-3.545
X4.3944Y-3.545
X4.4731Y-3.545
X4.5519Y-3.545
X4.6306Y-3.545
T4
X4.145Y-4.325
X4.245Y-4.325
X4.345Y-4.325
X4.445Y-4.325
X4.545Y-4.325
X4.645Y-4.325
T0
M30
