G04 #@! TF.FileFunction,Legend,Bot*
%FSLAX46Y46*%
G04 Gerber Fmt 4.6, Leading zero omitted, Abs format (unit mm)*
G04 Created by KiCad (PCBNEW 4.0.7) date 08/12/18 13:26:52*
%MOMM*%
%LPD*%
G01*
G04 APERTURE LIST*
%ADD10C,0.100000*%
%ADD11C,0.250000*%
%ADD12C,0.150000*%
%ADD13C,0.099060*%
G04 APERTURE END LIST*
D10*
D11*
X101272381Y-88245953D02*
X100272381Y-88245953D01*
X100748571Y-88245953D02*
X100748571Y-88817382D01*
X101272381Y-88817382D02*
X100272381Y-88817382D01*
X101272381Y-89293572D02*
X100272381Y-89293572D01*
X100986667Y-89626906D01*
X100272381Y-89960239D01*
X101272381Y-89960239D01*
X100891429Y-90436429D02*
X100891429Y-91198334D01*
X101272381Y-92150715D02*
X101272381Y-91674524D01*
X100272381Y-91674524D01*
X101177143Y-93055477D02*
X101224762Y-93007858D01*
X101272381Y-92865001D01*
X101272381Y-92769763D01*
X101224762Y-92626905D01*
X101129524Y-92531667D01*
X101034286Y-92484048D01*
X100843810Y-92436429D01*
X100700952Y-92436429D01*
X100510476Y-92484048D01*
X100415238Y-92531667D01*
X100320000Y-92626905D01*
X100272381Y-92769763D01*
X100272381Y-92865001D01*
X100320000Y-93007858D01*
X100367619Y-93055477D01*
X100891429Y-93484048D02*
X100891429Y-94245953D01*
X101224762Y-94674524D02*
X101272381Y-94817381D01*
X101272381Y-95055477D01*
X101224762Y-95150715D01*
X101177143Y-95198334D01*
X101081905Y-95245953D01*
X100986667Y-95245953D01*
X100891429Y-95198334D01*
X100843810Y-95150715D01*
X100796190Y-95055477D01*
X100748571Y-94865000D01*
X100700952Y-94769762D01*
X100653333Y-94722143D01*
X100558095Y-94674524D01*
X100462857Y-94674524D01*
X100367619Y-94722143D01*
X100320000Y-94769762D01*
X100272381Y-94865000D01*
X100272381Y-95103096D01*
X100320000Y-95245953D01*
X100605714Y-95579286D02*
X101272381Y-95769762D01*
X100796190Y-95960239D01*
X101272381Y-96150715D01*
X100605714Y-96341191D01*
X101272381Y-97245953D02*
X101272381Y-96674524D01*
X101272381Y-96960238D02*
X100272381Y-96960238D01*
X100415238Y-96865000D01*
X100510476Y-96769762D01*
X100558095Y-96674524D01*
X100891429Y-97674524D02*
X100891429Y-98436429D01*
X101272381Y-98912619D02*
X100272381Y-98912619D01*
X100272381Y-99293572D01*
X100320000Y-99388810D01*
X100367619Y-99436429D01*
X100462857Y-99484048D01*
X100605714Y-99484048D01*
X100700952Y-99436429D01*
X100748571Y-99388810D01*
X100796190Y-99293572D01*
X100796190Y-98912619D01*
X101272381Y-100055476D02*
X101224762Y-99960238D01*
X101129524Y-99912619D01*
X100272381Y-99912619D01*
X100891429Y-100436429D02*
X100891429Y-101198334D01*
X101272381Y-101674524D02*
X100272381Y-101674524D01*
X100272381Y-101912619D01*
X100320000Y-102055477D01*
X100415238Y-102150715D01*
X100510476Y-102198334D01*
X100700952Y-102245953D01*
X100843810Y-102245953D01*
X101034286Y-102198334D01*
X101129524Y-102150715D01*
X101224762Y-102055477D01*
X101272381Y-101912619D01*
X101272381Y-101674524D01*
X101272381Y-102674524D02*
X100272381Y-102674524D01*
X101272381Y-103245953D01*
X100272381Y-103245953D01*
X100891429Y-103722143D02*
X100891429Y-104484048D01*
X101272381Y-105531667D02*
X100796190Y-105198333D01*
X101272381Y-104960238D02*
X100272381Y-104960238D01*
X100272381Y-105341191D01*
X100320000Y-105436429D01*
X100367619Y-105484048D01*
X100462857Y-105531667D01*
X100605714Y-105531667D01*
X100700952Y-105484048D01*
X100748571Y-105436429D01*
X100796190Y-105341191D01*
X100796190Y-104960238D01*
X101272381Y-106484048D02*
X101272381Y-105912619D01*
X101272381Y-106198333D02*
X100272381Y-106198333D01*
X100415238Y-106103095D01*
X100510476Y-106007857D01*
X100558095Y-105912619D01*
X101367619Y-106674524D02*
X101367619Y-107436429D01*
X100272381Y-107865000D02*
X100272381Y-108055477D01*
X100320000Y-108150715D01*
X100415238Y-108245953D01*
X100605714Y-108293572D01*
X100939048Y-108293572D01*
X101129524Y-108245953D01*
X101224762Y-108150715D01*
X101272381Y-108055477D01*
X101272381Y-107865000D01*
X101224762Y-107769762D01*
X101129524Y-107674524D01*
X100939048Y-107626905D01*
X100605714Y-107626905D01*
X100415238Y-107674524D01*
X100320000Y-107769762D01*
X100272381Y-107865000D01*
X100748571Y-109055477D02*
X100796190Y-109198334D01*
X100843810Y-109245953D01*
X100939048Y-109293572D01*
X101081905Y-109293572D01*
X101177143Y-109245953D01*
X101224762Y-109198334D01*
X101272381Y-109103096D01*
X101272381Y-108722143D01*
X100272381Y-108722143D01*
X100272381Y-109055477D01*
X100320000Y-109150715D01*
X100367619Y-109198334D01*
X100462857Y-109245953D01*
X100558095Y-109245953D01*
X100653333Y-109198334D01*
X100700952Y-109150715D01*
X100748571Y-109055477D01*
X100748571Y-108722143D01*
X101272381Y-109722143D02*
X100272381Y-109722143D01*
X102974762Y-92198333D02*
X103022381Y-92293571D01*
X103022381Y-92484047D01*
X102974762Y-92579286D01*
X102879524Y-92626905D01*
X102831905Y-92626905D01*
X102736667Y-92579286D01*
X102689048Y-92484047D01*
X102689048Y-92341190D01*
X102641429Y-92245952D01*
X102546190Y-92198333D01*
X102498571Y-92198333D01*
X102403333Y-92245952D01*
X102355714Y-92341190D01*
X102355714Y-92484047D01*
X102403333Y-92579286D01*
X102355714Y-92912619D02*
X102355714Y-93293571D01*
X102022381Y-93055476D02*
X102879524Y-93055476D01*
X102974762Y-93103095D01*
X103022381Y-93198333D01*
X103022381Y-93293571D01*
X103022381Y-94055477D02*
X102498571Y-94055477D01*
X102403333Y-94007858D01*
X102355714Y-93912620D01*
X102355714Y-93722143D01*
X102403333Y-93626905D01*
X102974762Y-94055477D02*
X103022381Y-93960239D01*
X103022381Y-93722143D01*
X102974762Y-93626905D01*
X102879524Y-93579286D01*
X102784286Y-93579286D01*
X102689048Y-93626905D01*
X102641429Y-93722143D01*
X102641429Y-93960239D01*
X102593810Y-94055477D01*
X102355714Y-94531667D02*
X103022381Y-94531667D01*
X102450952Y-94531667D02*
X102403333Y-94579286D01*
X102355714Y-94674524D01*
X102355714Y-94817382D01*
X102403333Y-94912620D01*
X102498571Y-94960239D01*
X103022381Y-94960239D01*
X102117619Y-95388810D02*
X102070000Y-95436429D01*
X102022381Y-95531667D01*
X102022381Y-95769763D01*
X102070000Y-95865001D01*
X102117619Y-95912620D01*
X102212857Y-95960239D01*
X102308095Y-95960239D01*
X102450952Y-95912620D01*
X103022381Y-95341191D01*
X103022381Y-95960239D01*
X102022381Y-96293572D02*
X102022381Y-96912620D01*
X102403333Y-96579286D01*
X102403333Y-96722144D01*
X102450952Y-96817382D01*
X102498571Y-96865001D01*
X102593810Y-96912620D01*
X102831905Y-96912620D01*
X102927143Y-96865001D01*
X102974762Y-96817382D01*
X103022381Y-96722144D01*
X103022381Y-96436429D01*
X102974762Y-96341191D01*
X102927143Y-96293572D01*
X102022381Y-97960239D02*
X103022381Y-98293572D01*
X102022381Y-98626906D01*
X103022381Y-99484049D02*
X103022381Y-98912620D01*
X103022381Y-99198334D02*
X102022381Y-99198334D01*
X102165238Y-99103096D01*
X102260476Y-99007858D01*
X102308095Y-98912620D01*
X102927143Y-99912620D02*
X102974762Y-99960239D01*
X103022381Y-99912620D01*
X102974762Y-99865001D01*
X102927143Y-99912620D01*
X103022381Y-99912620D01*
X102022381Y-100579286D02*
X102022381Y-100674525D01*
X102070000Y-100769763D01*
X102117619Y-100817382D01*
X102212857Y-100865001D01*
X102403333Y-100912620D01*
X102641429Y-100912620D01*
X102831905Y-100865001D01*
X102927143Y-100817382D01*
X102974762Y-100769763D01*
X103022381Y-100674525D01*
X103022381Y-100579286D01*
X102974762Y-100484048D01*
X102927143Y-100436429D01*
X102831905Y-100388810D01*
X102641429Y-100341191D01*
X102403333Y-100341191D01*
X102212857Y-100388810D01*
X102117619Y-100436429D01*
X102070000Y-100484048D01*
X102022381Y-100579286D01*
X102022381Y-102293572D02*
X102022381Y-102388811D01*
X102070000Y-102484049D01*
X102117619Y-102531668D01*
X102212857Y-102579287D01*
X102403333Y-102626906D01*
X102641429Y-102626906D01*
X102831905Y-102579287D01*
X102927143Y-102531668D01*
X102974762Y-102484049D01*
X103022381Y-102388811D01*
X103022381Y-102293572D01*
X102974762Y-102198334D01*
X102927143Y-102150715D01*
X102831905Y-102103096D01*
X102641429Y-102055477D01*
X102403333Y-102055477D01*
X102212857Y-102103096D01*
X102117619Y-102150715D01*
X102070000Y-102198334D01*
X102022381Y-102293572D01*
X102450952Y-103198334D02*
X102403333Y-103103096D01*
X102355714Y-103055477D01*
X102260476Y-103007858D01*
X102212857Y-103007858D01*
X102117619Y-103055477D01*
X102070000Y-103103096D01*
X102022381Y-103198334D01*
X102022381Y-103388811D01*
X102070000Y-103484049D01*
X102117619Y-103531668D01*
X102212857Y-103579287D01*
X102260476Y-103579287D01*
X102355714Y-103531668D01*
X102403333Y-103484049D01*
X102450952Y-103388811D01*
X102450952Y-103198334D01*
X102498571Y-103103096D01*
X102546190Y-103055477D01*
X102641429Y-103007858D01*
X102831905Y-103007858D01*
X102927143Y-103055477D01*
X102974762Y-103103096D01*
X103022381Y-103198334D01*
X103022381Y-103388811D01*
X102974762Y-103484049D01*
X102927143Y-103531668D01*
X102831905Y-103579287D01*
X102641429Y-103579287D01*
X102546190Y-103531668D01*
X102498571Y-103484049D01*
X102450952Y-103388811D01*
X101974762Y-104722144D02*
X103260476Y-103865001D01*
X103022381Y-105579287D02*
X103022381Y-105007858D01*
X103022381Y-105293572D02*
X102022381Y-105293572D01*
X102165238Y-105198334D01*
X102260476Y-105103096D01*
X102308095Y-105007858D01*
X102450952Y-106150715D02*
X102403333Y-106055477D01*
X102355714Y-106007858D01*
X102260476Y-105960239D01*
X102212857Y-105960239D01*
X102117619Y-106007858D01*
X102070000Y-106055477D01*
X102022381Y-106150715D01*
X102022381Y-106341192D01*
X102070000Y-106436430D01*
X102117619Y-106484049D01*
X102212857Y-106531668D01*
X102260476Y-106531668D01*
X102355714Y-106484049D01*
X102403333Y-106436430D01*
X102450952Y-106341192D01*
X102450952Y-106150715D01*
X102498571Y-106055477D01*
X102546190Y-106007858D01*
X102641429Y-105960239D01*
X102831905Y-105960239D01*
X102927143Y-106007858D01*
X102974762Y-106055477D01*
X103022381Y-106150715D01*
X103022381Y-106341192D01*
X102974762Y-106436430D01*
X102927143Y-106484049D01*
X102831905Y-106531668D01*
X102641429Y-106531668D01*
X102546190Y-106484049D01*
X102498571Y-106436430D01*
X102450952Y-106341192D01*
D12*
X101617000Y-90043000D02*
X101617000Y-108043000D01*
X101617000Y-108043000D02*
X119617000Y-108043000D01*
X119617000Y-108043000D02*
X119617000Y-89043000D01*
X119617000Y-89043000D02*
X101617000Y-89043000D01*
X101617000Y-89043000D02*
X101617000Y-90043000D01*
D13*
X101995000Y-87565000D02*
X118995000Y-87565000D01*
X118995000Y-87565000D02*
X118995000Y-106465000D01*
X118995000Y-106465000D02*
X101995000Y-106465000D01*
X101995000Y-87565000D02*
X101995000Y-106465000D01*
D12*
X110214048Y-92617381D02*
X110214048Y-93426905D01*
X110166429Y-93522143D01*
X110118810Y-93569762D01*
X110023572Y-93617381D01*
X109833095Y-93617381D01*
X109737857Y-93569762D01*
X109690238Y-93522143D01*
X109642619Y-93426905D01*
X109642619Y-92617381D01*
X109214048Y-92712619D02*
X109166429Y-92665000D01*
X109071191Y-92617381D01*
X108833095Y-92617381D01*
X108737857Y-92665000D01*
X108690238Y-92712619D01*
X108642619Y-92807857D01*
X108642619Y-92903095D01*
X108690238Y-93045952D01*
X109261667Y-93617381D01*
X108642619Y-93617381D01*
X108452143Y-93712619D02*
X107690238Y-93712619D01*
X107023571Y-93617381D02*
X107023571Y-93093571D01*
X107071190Y-92998333D01*
X107166428Y-92950714D01*
X107356905Y-92950714D01*
X107452143Y-92998333D01*
X107023571Y-93569762D02*
X107118809Y-93617381D01*
X107356905Y-93617381D01*
X107452143Y-93569762D01*
X107499762Y-93474524D01*
X107499762Y-93379286D01*
X107452143Y-93284048D01*
X107356905Y-93236429D01*
X107118809Y-93236429D01*
X107023571Y-93188810D01*
X106404524Y-93617381D02*
X106499762Y-93569762D01*
X106547381Y-93474524D01*
X106547381Y-92617381D01*
X106166428Y-92950714D02*
X105785476Y-92950714D01*
X106023571Y-92617381D02*
X106023571Y-93474524D01*
X105975952Y-93569762D01*
X105880714Y-93617381D01*
X105785476Y-93617381D01*
X104928332Y-93617381D02*
X105499761Y-93617381D01*
X105214047Y-93617381D02*
X105214047Y-92617381D01*
X105309285Y-92760238D01*
X105404523Y-92855476D01*
X105499761Y-92903095D01*
M02*
