G04 #@! TF.FileFunction,Legend,Top*
%FSLAX46Y46*%
G04 Gerber Fmt 4.6, Leading zero omitted, Abs format (unit mm)*
G04 Created by KiCad (PCBNEW 4.0.7) date 08/12/18 13:26:52*
%MOMM*%
%LPD*%
G01*
G04 APERTURE LIST*
%ADD10C,0.100000*%
%ADD11C,0.125000*%
%ADD12C,0.250000*%
%ADD13C,0.120000*%
%ADD14C,0.150000*%
G04 APERTURE END LIST*
D10*
D11*
X115062047Y-111641000D02*
X115014428Y-111593381D01*
X114943000Y-111593381D01*
X114871571Y-111641000D01*
X114823952Y-111736238D01*
X114800143Y-111831476D01*
X114776333Y-112021952D01*
X114776333Y-112164810D01*
X114800143Y-112355286D01*
X114823952Y-112450524D01*
X114871571Y-112545762D01*
X114943000Y-112593381D01*
X114990619Y-112593381D01*
X115062047Y-112545762D01*
X115085857Y-112498143D01*
X115085857Y-112164810D01*
X114990619Y-112164810D01*
X115300143Y-112593381D02*
X115300143Y-111593381D01*
X115585857Y-112593381D01*
X115585857Y-111593381D01*
X115823953Y-112593381D02*
X115823953Y-111593381D01*
X115943000Y-111593381D01*
X116014429Y-111641000D01*
X116062048Y-111736238D01*
X116085857Y-111831476D01*
X116109667Y-112021952D01*
X116109667Y-112164810D01*
X116085857Y-112355286D01*
X116062048Y-112450524D01*
X116014429Y-112545762D01*
X115943000Y-112593381D01*
X115823953Y-112593381D01*
X112283954Y-111593381D02*
X112593477Y-111593381D01*
X112426811Y-111974333D01*
X112498239Y-111974333D01*
X112545858Y-112021952D01*
X112569668Y-112069571D01*
X112593477Y-112164810D01*
X112593477Y-112402905D01*
X112569668Y-112498143D01*
X112545858Y-112545762D01*
X112498239Y-112593381D01*
X112355382Y-112593381D01*
X112307763Y-112545762D01*
X112283954Y-112498143D01*
X112736334Y-111593381D02*
X112903001Y-112593381D01*
X113069667Y-111593381D01*
X113188715Y-111593381D02*
X113498238Y-111593381D01*
X113331572Y-111974333D01*
X113403000Y-111974333D01*
X113450619Y-112021952D01*
X113474429Y-112069571D01*
X113498238Y-112164810D01*
X113498238Y-112402905D01*
X113474429Y-112498143D01*
X113450619Y-112545762D01*
X113403000Y-112593381D01*
X113260143Y-112593381D01*
X113212524Y-112545762D01*
X113188715Y-112498143D01*
X104711572Y-112593381D02*
X104711572Y-111593381D01*
X104830619Y-111593381D01*
X104902048Y-111641000D01*
X104949667Y-111736238D01*
X104973476Y-111831476D01*
X104997286Y-112021952D01*
X104997286Y-112164810D01*
X104973476Y-112355286D01*
X104949667Y-112450524D01*
X104902048Y-112545762D01*
X104830619Y-112593381D01*
X104711572Y-112593381D01*
X105140143Y-111593381D02*
X105425857Y-111593381D01*
X105283000Y-112593381D02*
X105283000Y-111593381D01*
X105878238Y-112593381D02*
X105711571Y-112117190D01*
X105592524Y-112593381D02*
X105592524Y-111593381D01*
X105783000Y-111593381D01*
X105830619Y-111641000D01*
X105854428Y-111688619D01*
X105878238Y-111783857D01*
X105878238Y-111926714D01*
X105854428Y-112021952D01*
X105830619Y-112069571D01*
X105783000Y-112117190D01*
X105592524Y-112117190D01*
X101000810Y-112593381D02*
X100834143Y-112117190D01*
X100715096Y-112593381D02*
X100715096Y-111593381D01*
X100905572Y-111593381D01*
X100953191Y-111641000D01*
X100977000Y-111688619D01*
X101000810Y-111783857D01*
X101000810Y-111926714D01*
X100977000Y-112021952D01*
X100953191Y-112069571D01*
X100905572Y-112117190D01*
X100715096Y-112117190D01*
X101215096Y-112069571D02*
X101381762Y-112069571D01*
X101453191Y-112593381D02*
X101215096Y-112593381D01*
X101215096Y-111593381D01*
X101453191Y-111593381D01*
X101643667Y-112545762D02*
X101715096Y-112593381D01*
X101834143Y-112593381D01*
X101881762Y-112545762D01*
X101905572Y-112498143D01*
X101929381Y-112402905D01*
X101929381Y-112307667D01*
X101905572Y-112212429D01*
X101881762Y-112164810D01*
X101834143Y-112117190D01*
X101738905Y-112069571D01*
X101691286Y-112021952D01*
X101667477Y-111974333D01*
X101643667Y-111879095D01*
X101643667Y-111783857D01*
X101667477Y-111688619D01*
X101691286Y-111641000D01*
X101738905Y-111593381D01*
X101857953Y-111593381D01*
X101929381Y-111641000D01*
X102143667Y-112069571D02*
X102310333Y-112069571D01*
X102381762Y-112593381D02*
X102143667Y-112593381D01*
X102143667Y-111593381D01*
X102381762Y-111593381D01*
X102524619Y-111593381D02*
X102810333Y-111593381D01*
X102667476Y-112593381D02*
X102667476Y-111593381D01*
D12*
X101447381Y-107784047D02*
X100447381Y-107784047D01*
X100923571Y-107784047D02*
X100923571Y-107212618D01*
X101447381Y-107212618D02*
X100447381Y-107212618D01*
X101447381Y-106736428D02*
X100447381Y-106736428D01*
X101161667Y-106403094D01*
X100447381Y-106069761D01*
X101447381Y-106069761D01*
X101066429Y-105593571D02*
X101066429Y-104831666D01*
X101447381Y-103879285D02*
X101447381Y-104355476D01*
X100447381Y-104355476D01*
X101352143Y-102974523D02*
X101399762Y-103022142D01*
X101447381Y-103164999D01*
X101447381Y-103260237D01*
X101399762Y-103403095D01*
X101304524Y-103498333D01*
X101209286Y-103545952D01*
X101018810Y-103593571D01*
X100875952Y-103593571D01*
X100685476Y-103545952D01*
X100590238Y-103498333D01*
X100495000Y-103403095D01*
X100447381Y-103260237D01*
X100447381Y-103164999D01*
X100495000Y-103022142D01*
X100542619Y-102974523D01*
X101066429Y-102545952D02*
X101066429Y-101784047D01*
X101399762Y-101355476D02*
X101447381Y-101212619D01*
X101447381Y-100974523D01*
X101399762Y-100879285D01*
X101352143Y-100831666D01*
X101256905Y-100784047D01*
X101161667Y-100784047D01*
X101066429Y-100831666D01*
X101018810Y-100879285D01*
X100971190Y-100974523D01*
X100923571Y-101165000D01*
X100875952Y-101260238D01*
X100828333Y-101307857D01*
X100733095Y-101355476D01*
X100637857Y-101355476D01*
X100542619Y-101307857D01*
X100495000Y-101260238D01*
X100447381Y-101165000D01*
X100447381Y-100926904D01*
X100495000Y-100784047D01*
X100780714Y-100450714D02*
X101447381Y-100260238D01*
X100971190Y-100069761D01*
X101447381Y-99879285D01*
X100780714Y-99688809D01*
X101447381Y-98784047D02*
X101447381Y-99355476D01*
X101447381Y-99069762D02*
X100447381Y-99069762D01*
X100590238Y-99165000D01*
X100685476Y-99260238D01*
X100733095Y-99355476D01*
X101066429Y-98355476D02*
X101066429Y-97593571D01*
X101447381Y-97117381D02*
X100447381Y-97117381D01*
X100447381Y-96736428D01*
X100495000Y-96641190D01*
X100542619Y-96593571D01*
X100637857Y-96545952D01*
X100780714Y-96545952D01*
X100875952Y-96593571D01*
X100923571Y-96641190D01*
X100971190Y-96736428D01*
X100971190Y-97117381D01*
X101447381Y-95974524D02*
X101399762Y-96069762D01*
X101304524Y-96117381D01*
X100447381Y-96117381D01*
X101066429Y-95593571D02*
X101066429Y-94831666D01*
X101447381Y-94355476D02*
X100447381Y-94355476D01*
X100447381Y-94117381D01*
X100495000Y-93974523D01*
X100590238Y-93879285D01*
X100685476Y-93831666D01*
X100875952Y-93784047D01*
X101018810Y-93784047D01*
X101209286Y-93831666D01*
X101304524Y-93879285D01*
X101399762Y-93974523D01*
X101447381Y-94117381D01*
X101447381Y-94355476D01*
X101447381Y-93355476D02*
X100447381Y-93355476D01*
X101447381Y-92784047D01*
X100447381Y-92784047D01*
X101066429Y-92307857D02*
X101066429Y-91545952D01*
X101447381Y-90498333D02*
X100971190Y-90831667D01*
X101447381Y-91069762D02*
X100447381Y-91069762D01*
X100447381Y-90688809D01*
X100495000Y-90593571D01*
X100542619Y-90545952D01*
X100637857Y-90498333D01*
X100780714Y-90498333D01*
X100875952Y-90545952D01*
X100923571Y-90593571D01*
X100971190Y-90688809D01*
X100971190Y-91069762D01*
X101447381Y-89545952D02*
X101447381Y-90117381D01*
X101447381Y-89831667D02*
X100447381Y-89831667D01*
X100590238Y-89926905D01*
X100685476Y-90022143D01*
X100733095Y-90117381D01*
X101542619Y-89355476D02*
X101542619Y-88593571D01*
X100447381Y-88165000D02*
X100447381Y-87974523D01*
X100495000Y-87879285D01*
X100590238Y-87784047D01*
X100780714Y-87736428D01*
X101114048Y-87736428D01*
X101304524Y-87784047D01*
X101399762Y-87879285D01*
X101447381Y-87974523D01*
X101447381Y-88165000D01*
X101399762Y-88260238D01*
X101304524Y-88355476D01*
X101114048Y-88403095D01*
X100780714Y-88403095D01*
X100590238Y-88355476D01*
X100495000Y-88260238D01*
X100447381Y-88165000D01*
X100923571Y-86974523D02*
X100971190Y-86831666D01*
X101018810Y-86784047D01*
X101114048Y-86736428D01*
X101256905Y-86736428D01*
X101352143Y-86784047D01*
X101399762Y-86831666D01*
X101447381Y-86926904D01*
X101447381Y-87307857D01*
X100447381Y-87307857D01*
X100447381Y-86974523D01*
X100495000Y-86879285D01*
X100542619Y-86831666D01*
X100637857Y-86784047D01*
X100733095Y-86784047D01*
X100828333Y-86831666D01*
X100875952Y-86879285D01*
X100923571Y-86974523D01*
X100923571Y-87307857D01*
X101447381Y-86307857D02*
X100447381Y-86307857D01*
D13*
X103917000Y-91221000D02*
X104617000Y-91221000D01*
X104617000Y-92421000D02*
X103917000Y-92421000D01*
D14*
X110617000Y-104821524D02*
X110776099Y-104662425D01*
X105490476Y-99695000D02*
X105720286Y-99465190D01*
X110617000Y-94568476D02*
X110387190Y-94798286D01*
X115743524Y-99695000D02*
X115513714Y-99924810D01*
X110617000Y-104821524D02*
X110387190Y-104591714D01*
X115743524Y-99695000D02*
X115513714Y-99465190D01*
X110617000Y-94568476D02*
X110846810Y-94798286D01*
X105490476Y-99695000D02*
X105720286Y-99924810D01*
X110776099Y-104662425D02*
X111783726Y-105670052D01*
X106553000Y-108585000D02*
X119253000Y-108585000D01*
X119253000Y-108585000D02*
X119253000Y-111125000D01*
X119253000Y-111125000D02*
X106553000Y-111125000D01*
X103733000Y-108305000D02*
X105283000Y-108305000D01*
X106553000Y-108585000D02*
X106553000Y-111125000D01*
X105283000Y-111405000D02*
X103733000Y-111405000D01*
X103733000Y-111405000D02*
X103733000Y-108305000D01*
D13*
X116114751Y-105205777D02*
X115619777Y-105700751D01*
X114771249Y-104852223D02*
X115266223Y-104357249D01*
X106208751Y-94537777D02*
X105713777Y-95032751D01*
X104865249Y-94184223D02*
X105360223Y-93689249D01*
X104090223Y-106970751D02*
X103595249Y-106475777D01*
X104443777Y-105627249D02*
X104938751Y-106122223D01*
X104901721Y-105101386D02*
X104194614Y-104394279D01*
X105156279Y-103432614D02*
X105863386Y-104139721D01*
X101445000Y-109015000D02*
X101445000Y-110915000D01*
X101445000Y-110915000D02*
X103295000Y-110915000D01*
X103295000Y-110915000D02*
X103295000Y-109065000D01*
X103295000Y-109065000D02*
X103295000Y-109015000D01*
X103295000Y-109015000D02*
X101445000Y-109015000D01*
D14*
X125063000Y-111219000D02*
X125063000Y-90719000D01*
X125063000Y-90719000D02*
X119563000Y-90719000D01*
X119563000Y-90719000D02*
X119563000Y-111219000D01*
X119563000Y-111219000D02*
X125063000Y-111219000D01*
D13*
X116395000Y-95715000D02*
X116395000Y-95015000D01*
X117595000Y-95015000D02*
X117595000Y-95715000D01*
D14*
X107148334Y-92178143D02*
X107100715Y-92225762D01*
X106957858Y-92273381D01*
X106862620Y-92273381D01*
X106719762Y-92225762D01*
X106624524Y-92130524D01*
X106576905Y-92035286D01*
X106529286Y-91844810D01*
X106529286Y-91701952D01*
X106576905Y-91511476D01*
X106624524Y-91416238D01*
X106719762Y-91321000D01*
X106862620Y-91273381D01*
X106957858Y-91273381D01*
X107100715Y-91321000D01*
X107148334Y-91368619D01*
X108100715Y-92273381D02*
X107529286Y-92273381D01*
X107815000Y-92273381D02*
X107815000Y-91273381D01*
X107719762Y-91416238D01*
X107624524Y-91511476D01*
X107529286Y-91559095D01*
X110465477Y-105119027D02*
X109893057Y-105691447D01*
X109859385Y-105792462D01*
X109859385Y-105859805D01*
X109893057Y-105960820D01*
X110027745Y-106095508D01*
X110128760Y-106129180D01*
X110196103Y-106129180D01*
X110297118Y-106095508D01*
X110869538Y-105523088D01*
X110869538Y-106937302D02*
X110465477Y-106533240D01*
X110667507Y-106735271D02*
X111374614Y-106028164D01*
X111206255Y-106061836D01*
X111071569Y-106061836D01*
X110970553Y-106028164D01*
X116847688Y-105907389D02*
X116847688Y-105974732D01*
X116780344Y-106109419D01*
X116713001Y-106176763D01*
X116578313Y-106244107D01*
X116443626Y-106244107D01*
X116342611Y-106210435D01*
X116174253Y-106109420D01*
X116073237Y-106008404D01*
X115972222Y-105840045D01*
X115938550Y-105739030D01*
X115938550Y-105604343D01*
X116005894Y-105469656D01*
X116073237Y-105402312D01*
X116207924Y-105334969D01*
X116275268Y-105334969D01*
X116544641Y-105065595D02*
X116544641Y-104998252D01*
X116578313Y-104897237D01*
X116746672Y-104728877D01*
X116847688Y-104695206D01*
X116915031Y-104695206D01*
X117016046Y-104728877D01*
X117083390Y-104796221D01*
X117150733Y-104930908D01*
X117150733Y-105739030D01*
X117588466Y-105301297D01*
X103629688Y-94735388D02*
X103629688Y-94802731D01*
X103562344Y-94937418D01*
X103495001Y-95004762D01*
X103360313Y-95072106D01*
X103225626Y-95072106D01*
X103124611Y-95038434D01*
X102956253Y-94937419D01*
X102855237Y-94836403D01*
X102754222Y-94668044D01*
X102720550Y-94567029D01*
X102720550Y-94432342D01*
X102787894Y-94297655D01*
X102855237Y-94230311D01*
X102989924Y-94162968D01*
X103057268Y-94162968D01*
X103225626Y-93859923D02*
X103663359Y-93422189D01*
X103697030Y-93927266D01*
X103798046Y-93826250D01*
X103899061Y-93792578D01*
X103966405Y-93792578D01*
X104067421Y-93826251D01*
X104235779Y-93994609D01*
X104269451Y-94095625D01*
X104269451Y-94162968D01*
X104235779Y-94263983D01*
X104033748Y-94466014D01*
X103932733Y-94499686D01*
X103865390Y-94499686D01*
X106436611Y-107449688D02*
X106369268Y-107449688D01*
X106234581Y-107382344D01*
X106167237Y-107315001D01*
X106099893Y-107180313D01*
X106099893Y-107045626D01*
X106133565Y-106944611D01*
X106234580Y-106776253D01*
X106335596Y-106675237D01*
X106503955Y-106574222D01*
X106604970Y-106540550D01*
X106739657Y-106540550D01*
X106874344Y-106607894D01*
X106941688Y-106675237D01*
X107009031Y-106809924D01*
X107009031Y-106877268D01*
X107177390Y-107517030D02*
X107143718Y-107416015D01*
X107143718Y-107348672D01*
X107177390Y-107247657D01*
X107211061Y-107213985D01*
X107312076Y-107180313D01*
X107379420Y-107180313D01*
X107480435Y-107213985D01*
X107615123Y-107348672D01*
X107648794Y-107449688D01*
X107648794Y-107517031D01*
X107615123Y-107618046D01*
X107581451Y-107651718D01*
X107480436Y-107685390D01*
X107413092Y-107685390D01*
X107312077Y-107651718D01*
X107177390Y-107517030D01*
X107076374Y-107483359D01*
X107009031Y-107483359D01*
X106908015Y-107517031D01*
X106773328Y-107651718D01*
X106739657Y-107752733D01*
X106739657Y-107820076D01*
X106773328Y-107921092D01*
X106908016Y-108055779D01*
X107009031Y-108089451D01*
X107076374Y-108089451D01*
X107177390Y-108055779D01*
X107312076Y-107921092D01*
X107345749Y-107820076D01*
X107345749Y-107752733D01*
X107312077Y-107651718D01*
X107385268Y-105993031D02*
X107486283Y-105420610D01*
X106981206Y-105588970D02*
X107688313Y-104881863D01*
X107957688Y-105151237D01*
X107991359Y-105252253D01*
X107991359Y-105319596D01*
X107957688Y-105420611D01*
X107856672Y-105521626D01*
X107755657Y-105555298D01*
X107688314Y-105555298D01*
X107587299Y-105521626D01*
X107317924Y-105252252D01*
X108058703Y-106666466D02*
X107654641Y-106262405D01*
X107856672Y-106464435D02*
X108563778Y-105757328D01*
X108395420Y-105791000D01*
X108260733Y-105791000D01*
X108159718Y-105757328D01*
X125515381Y-109552333D02*
X126229667Y-109552333D01*
X126372524Y-109599953D01*
X126467762Y-109695191D01*
X126515381Y-109838048D01*
X126515381Y-109933286D01*
X126515381Y-108552333D02*
X126515381Y-109123762D01*
X126515381Y-108838048D02*
X125515381Y-108838048D01*
X125658238Y-108933286D01*
X125753476Y-109028524D01*
X125801095Y-109123762D01*
X115128334Y-94122143D02*
X115080715Y-94169762D01*
X114937858Y-94217381D01*
X114842620Y-94217381D01*
X114699762Y-94169762D01*
X114604524Y-94074524D01*
X114556905Y-93979286D01*
X114509286Y-93788810D01*
X114509286Y-93645952D01*
X114556905Y-93455476D01*
X114604524Y-93360238D01*
X114699762Y-93265000D01*
X114842620Y-93217381D01*
X114937858Y-93217381D01*
X115080715Y-93265000D01*
X115128334Y-93312619D01*
X115985477Y-93217381D02*
X115795000Y-93217381D01*
X115699762Y-93265000D01*
X115652143Y-93312619D01*
X115556905Y-93455476D01*
X115509286Y-93645952D01*
X115509286Y-94026905D01*
X115556905Y-94122143D01*
X115604524Y-94169762D01*
X115699762Y-94217381D01*
X115890239Y-94217381D01*
X115985477Y-94169762D01*
X116033096Y-94122143D01*
X116080715Y-94026905D01*
X116080715Y-93788810D01*
X116033096Y-93693571D01*
X115985477Y-93645952D01*
X115890239Y-93598333D01*
X115699762Y-93598333D01*
X115604524Y-93645952D01*
X115556905Y-93693571D01*
X115509286Y-93788810D01*
M02*
