G04 #@! TF.FileFunction,Copper,L1,Top,Signal*
%FSLAX46Y46*%
G04 Gerber Fmt 4.6, Leading zero omitted, Abs format (unit mm)*
G04 Created by KiCad (PCBNEW 4.0.7) date 08/12/18 13:26:52*
%MOMM*%
%LPD*%
G01*
G04 APERTURE LIST*
%ADD10C,0.100000*%
%ADD11R,1.200000X0.750000*%
%ADD12R,1.727200X2.032000*%
%ADD13O,1.727200X2.032000*%
%ADD14C,1.270000*%
%ADD15C,1.400000*%
%ADD16R,3.500000X2.500000*%
%ADD17R,3.500000X1.524000*%
%ADD18R,0.750000X1.200000*%
%ADD19C,0.600000*%
%ADD20C,0.300000*%
%ADD21C,0.500000*%
%ADD22C,0.250000*%
%ADD23C,0.254000*%
G04 APERTURE END LIST*
D10*
D11*
X103317000Y-91821000D03*
X105217000Y-91821000D03*
D10*
G36*
X112402445Y-105051334D02*
X112013536Y-105440243D01*
X110882165Y-104308872D01*
X111271074Y-103919963D01*
X112402445Y-105051334D01*
X112402445Y-105051334D01*
G37*
G36*
X112968130Y-104485648D02*
X112579221Y-104874557D01*
X111447850Y-103743186D01*
X111836759Y-103354277D01*
X112968130Y-104485648D01*
X112968130Y-104485648D01*
G37*
G36*
X113533816Y-103919963D02*
X113144907Y-104308872D01*
X112013536Y-103177501D01*
X112402445Y-102788592D01*
X113533816Y-103919963D01*
X113533816Y-103919963D01*
G37*
G36*
X114099501Y-103354278D02*
X113710592Y-103743187D01*
X112579221Y-102611816D01*
X112968130Y-102222907D01*
X114099501Y-103354278D01*
X114099501Y-103354278D01*
G37*
G36*
X114665187Y-102788592D02*
X114276278Y-103177501D01*
X113144907Y-102046130D01*
X113533816Y-101657221D01*
X114665187Y-102788592D01*
X114665187Y-102788592D01*
G37*
G36*
X115230872Y-102222907D02*
X114841963Y-102611816D01*
X113710592Y-101480445D01*
X114099501Y-101091536D01*
X115230872Y-102222907D01*
X115230872Y-102222907D01*
G37*
G36*
X115796557Y-101657221D02*
X115407648Y-102046130D01*
X114276277Y-100914759D01*
X114665186Y-100525850D01*
X115796557Y-101657221D01*
X115796557Y-101657221D01*
G37*
G36*
X116362243Y-101091536D02*
X115973334Y-101480445D01*
X114841963Y-100349074D01*
X115230872Y-99960165D01*
X116362243Y-101091536D01*
X116362243Y-101091536D01*
G37*
G36*
X115973334Y-97909555D02*
X116362243Y-98298464D01*
X115230872Y-99429835D01*
X114841963Y-99040926D01*
X115973334Y-97909555D01*
X115973334Y-97909555D01*
G37*
G36*
X115407648Y-97343870D02*
X115796557Y-97732779D01*
X114665186Y-98864150D01*
X114276277Y-98475241D01*
X115407648Y-97343870D01*
X115407648Y-97343870D01*
G37*
G36*
X114841963Y-96778184D02*
X115230872Y-97167093D01*
X114099501Y-98298464D01*
X113710592Y-97909555D01*
X114841963Y-96778184D01*
X114841963Y-96778184D01*
G37*
G36*
X114276278Y-96212499D02*
X114665187Y-96601408D01*
X113533816Y-97732779D01*
X113144907Y-97343870D01*
X114276278Y-96212499D01*
X114276278Y-96212499D01*
G37*
G36*
X113710592Y-95646813D02*
X114099501Y-96035722D01*
X112968130Y-97167093D01*
X112579221Y-96778184D01*
X113710592Y-95646813D01*
X113710592Y-95646813D01*
G37*
G36*
X113144907Y-95081128D02*
X113533816Y-95470037D01*
X112402445Y-96601408D01*
X112013536Y-96212499D01*
X113144907Y-95081128D01*
X113144907Y-95081128D01*
G37*
G36*
X112579221Y-94515443D02*
X112968130Y-94904352D01*
X111836759Y-96035723D01*
X111447850Y-95646814D01*
X112579221Y-94515443D01*
X112579221Y-94515443D01*
G37*
G36*
X112013536Y-93949757D02*
X112402445Y-94338666D01*
X111271074Y-95470037D01*
X110882165Y-95081128D01*
X112013536Y-93949757D01*
X112013536Y-93949757D01*
G37*
G36*
X110351835Y-95081128D02*
X109962926Y-95470037D01*
X108831555Y-94338666D01*
X109220464Y-93949757D01*
X110351835Y-95081128D01*
X110351835Y-95081128D01*
G37*
G36*
X109786150Y-95646814D02*
X109397241Y-96035723D01*
X108265870Y-94904352D01*
X108654779Y-94515443D01*
X109786150Y-95646814D01*
X109786150Y-95646814D01*
G37*
G36*
X109220464Y-96212499D02*
X108831555Y-96601408D01*
X107700184Y-95470037D01*
X108089093Y-95081128D01*
X109220464Y-96212499D01*
X109220464Y-96212499D01*
G37*
G36*
X108654779Y-96778184D02*
X108265870Y-97167093D01*
X107134499Y-96035722D01*
X107523408Y-95646813D01*
X108654779Y-96778184D01*
X108654779Y-96778184D01*
G37*
G36*
X108089093Y-97343870D02*
X107700184Y-97732779D01*
X106568813Y-96601408D01*
X106957722Y-96212499D01*
X108089093Y-97343870D01*
X108089093Y-97343870D01*
G37*
G36*
X107523408Y-97909555D02*
X107134499Y-98298464D01*
X106003128Y-97167093D01*
X106392037Y-96778184D01*
X107523408Y-97909555D01*
X107523408Y-97909555D01*
G37*
G36*
X106957723Y-98475241D02*
X106568814Y-98864150D01*
X105437443Y-97732779D01*
X105826352Y-97343870D01*
X106957723Y-98475241D01*
X106957723Y-98475241D01*
G37*
G36*
X106392037Y-99040926D02*
X106003128Y-99429835D01*
X104871757Y-98298464D01*
X105260666Y-97909555D01*
X106392037Y-99040926D01*
X106392037Y-99040926D01*
G37*
G36*
X106003128Y-99960165D02*
X106392037Y-100349074D01*
X105260666Y-101480445D01*
X104871757Y-101091536D01*
X106003128Y-99960165D01*
X106003128Y-99960165D01*
G37*
G36*
X106568814Y-100525850D02*
X106957723Y-100914759D01*
X105826352Y-102046130D01*
X105437443Y-101657221D01*
X106568814Y-100525850D01*
X106568814Y-100525850D01*
G37*
G36*
X107134499Y-101091536D02*
X107523408Y-101480445D01*
X106392037Y-102611816D01*
X106003128Y-102222907D01*
X107134499Y-101091536D01*
X107134499Y-101091536D01*
G37*
G36*
X107700184Y-101657221D02*
X108089093Y-102046130D01*
X106957722Y-103177501D01*
X106568813Y-102788592D01*
X107700184Y-101657221D01*
X107700184Y-101657221D01*
G37*
G36*
X108265870Y-102222907D02*
X108654779Y-102611816D01*
X107523408Y-103743187D01*
X107134499Y-103354278D01*
X108265870Y-102222907D01*
X108265870Y-102222907D01*
G37*
G36*
X108831555Y-102788592D02*
X109220464Y-103177501D01*
X108089093Y-104308872D01*
X107700184Y-103919963D01*
X108831555Y-102788592D01*
X108831555Y-102788592D01*
G37*
G36*
X109397241Y-103354277D02*
X109786150Y-103743186D01*
X108654779Y-104874557D01*
X108265870Y-104485648D01*
X109397241Y-103354277D01*
X109397241Y-103354277D01*
G37*
G36*
X109962926Y-103919963D02*
X110351835Y-104308872D01*
X109220464Y-105440243D01*
X108831555Y-105051334D01*
X109962926Y-103919963D01*
X109962926Y-103919963D01*
G37*
D12*
X105283000Y-109855000D03*
D13*
X107823000Y-109855000D03*
X110363000Y-109855000D03*
X112903000Y-109855000D03*
X115443000Y-109855000D03*
X117983000Y-109855000D03*
D10*
G36*
X116273850Y-103667820D02*
X116804180Y-104198150D01*
X115955652Y-105046678D01*
X115425322Y-104516348D01*
X116273850Y-103667820D01*
X116273850Y-103667820D01*
G37*
G36*
X114930348Y-105011322D02*
X115460678Y-105541652D01*
X114612150Y-106390180D01*
X114081820Y-105859850D01*
X114930348Y-105011322D01*
X114930348Y-105011322D01*
G37*
G36*
X106367850Y-92999820D02*
X106898180Y-93530150D01*
X106049652Y-94378678D01*
X105519322Y-93848348D01*
X106367850Y-92999820D01*
X106367850Y-92999820D01*
G37*
G36*
X105024348Y-94343322D02*
X105554678Y-94873652D01*
X104706150Y-95722180D01*
X104175820Y-95191850D01*
X105024348Y-94343322D01*
X105024348Y-94343322D01*
G37*
G36*
X105628180Y-107129850D02*
X105097850Y-107660180D01*
X104249322Y-106811652D01*
X104779652Y-106281322D01*
X105628180Y-107129850D01*
X105628180Y-107129850D01*
G37*
G36*
X104284678Y-105786348D02*
X103754348Y-106316678D01*
X102905820Y-105468150D01*
X103436150Y-104937820D01*
X104284678Y-105786348D01*
X104284678Y-105786348D01*
G37*
G36*
X103508721Y-103383117D02*
X104145117Y-102746721D01*
X104993645Y-103595249D01*
X104357249Y-104231645D01*
X103508721Y-103383117D01*
X103508721Y-103383117D01*
G37*
G36*
X105064355Y-104938751D02*
X105700751Y-104302355D01*
X106549279Y-105150883D01*
X105912883Y-105787279D01*
X105064355Y-104938751D01*
X105064355Y-104938751D01*
G37*
D14*
X103617000Y-90043000D03*
X105617000Y-90043000D03*
X107617000Y-90043000D03*
X109617000Y-90043000D03*
X111617000Y-90043000D03*
X113617000Y-90043000D03*
X115617000Y-90043000D03*
X117617000Y-90043000D03*
D15*
X102395000Y-109965000D03*
D16*
X123015000Y-92439000D03*
X123015000Y-97519000D03*
D17*
X123015000Y-101075000D03*
X123015000Y-104123000D03*
X123015000Y-107171000D03*
X123015000Y-110219000D03*
D18*
X116995000Y-96315000D03*
X116995000Y-94415000D03*
D19*
X120895000Y-93265000D03*
X120895000Y-92365000D03*
X120895000Y-91465000D03*
X120295000Y-93265000D03*
X120269000Y-92365000D03*
X120269000Y-91465000D03*
X113919000Y-104775000D03*
X116995000Y-94415000D03*
X105717498Y-95885000D03*
X114935000Y-103505000D03*
X120269000Y-105791000D03*
X114173000Y-99695000D03*
X112395000Y-91313000D03*
X110617000Y-96393000D03*
X109895000Y-102465000D03*
X122047000Y-104013000D03*
X116459000Y-99441000D03*
X116295000Y-107065000D03*
X122047000Y-107061000D03*
X122047000Y-100965000D03*
X115443000Y-96139000D03*
D20*
X111792103Y-104680103D02*
X111642305Y-104680103D01*
D21*
X123015000Y-92439000D02*
X121989000Y-93265000D01*
X121989000Y-93265000D02*
X120895000Y-93265000D01*
X120895000Y-93265000D02*
X120295000Y-93265000D01*
X120269000Y-92365000D02*
X120895000Y-92365000D01*
X120895000Y-92365000D02*
X122363000Y-92365000D01*
X122363000Y-92365000D02*
X123015000Y-92439000D01*
X120269000Y-91465000D02*
X120895000Y-91465000D01*
X120895000Y-91465000D02*
X122397000Y-91465000D01*
X122397000Y-91465000D02*
X123015000Y-92439000D01*
X114771249Y-105700751D02*
X114771249Y-105627249D01*
X114771249Y-105627249D02*
X113919000Y-104775000D01*
X104865249Y-95032751D02*
X105717498Y-95885000D01*
X105617000Y-90043000D02*
X105617000Y-91421000D01*
X105617000Y-91421000D02*
X105217000Y-91821000D01*
X123015000Y-92439000D02*
X122363000Y-92365000D01*
X123015000Y-92439000D02*
X122397000Y-91465000D01*
D20*
X113905047Y-102417361D02*
X114935000Y-103447314D01*
X114935000Y-103447314D02*
X114935000Y-103505000D01*
X113919000Y-104694056D02*
X113919000Y-104775000D01*
X113959472Y-104734528D02*
X113919000Y-104775000D01*
X113919000Y-104775000D02*
X113959472Y-104734528D01*
X112773676Y-103548732D02*
X113919000Y-104694056D01*
X114771249Y-105546305D02*
X114771249Y-105700751D01*
X107328953Y-96972639D02*
X106241314Y-95885000D01*
X106241314Y-95885000D02*
X105717498Y-95885000D01*
X105617000Y-90377000D02*
X105617000Y-90043000D01*
D21*
X103617000Y-90043000D02*
X103617000Y-91521000D01*
X103617000Y-91521000D02*
X103317000Y-91821000D01*
X120269000Y-97663000D02*
X122871000Y-97663000D01*
X122871000Y-97663000D02*
X123015000Y-97519000D01*
X120269000Y-97155000D02*
X122651000Y-97155000D01*
X122651000Y-97155000D02*
X123015000Y-97519000D01*
X123015000Y-97519000D02*
X122617000Y-97917000D01*
X122617000Y-97917000D02*
X120269000Y-97917000D01*
X123015000Y-97519000D02*
X122905000Y-97409000D01*
X122905000Y-97409000D02*
X120269000Y-97409000D01*
X123015000Y-97519000D02*
X122363000Y-98171000D01*
X123015000Y-97519000D02*
X122397000Y-96901000D01*
D20*
X103317000Y-91821000D02*
X103617000Y-91521000D01*
X115697000Y-103077944D02*
X116114751Y-103495695D01*
X114470732Y-101851676D02*
X115697000Y-103077944D01*
X116114751Y-103495695D02*
X116114751Y-104357249D01*
X113339361Y-102983047D02*
X114713563Y-104357249D01*
X114713563Y-104357249D02*
X116114751Y-104357249D01*
X106208751Y-93689249D02*
X106208751Y-93762751D01*
X106208751Y-93762751D02*
X107061000Y-94615000D01*
X107894639Y-96406953D02*
X107061000Y-95573314D01*
X107061000Y-95573314D02*
X107061000Y-94615000D01*
X109026010Y-95275583D02*
X108365427Y-94615000D01*
X108365427Y-94615000D02*
X107061000Y-94615000D01*
X102395000Y-109965000D02*
X102395000Y-106827498D01*
X102395000Y-106827498D02*
X103595249Y-105627249D01*
X105806817Y-105044817D02*
X105013183Y-105044817D01*
X104430751Y-105627249D02*
X103595249Y-105627249D01*
X105013183Y-105044817D02*
X104430751Y-105627249D01*
X107894639Y-102983047D02*
X105832869Y-105044817D01*
X105832869Y-105044817D02*
X105806817Y-105044817D01*
D22*
X120269000Y-105791000D02*
X120269000Y-109855000D01*
X120269000Y-109855000D02*
X120633000Y-110219000D01*
X123015000Y-110219000D02*
X120633000Y-110219000D01*
X114173000Y-98967427D02*
X115036417Y-98104010D01*
X114173000Y-98967427D02*
X114173000Y-99695000D01*
X122047000Y-110109000D02*
X122157000Y-110219000D01*
X122157000Y-110219000D02*
X123015000Y-110219000D01*
D20*
X117617000Y-90043000D02*
X117617000Y-90997944D01*
X117617000Y-90997944D02*
X112773676Y-95841268D01*
X113665000Y-94949944D02*
X112773676Y-95841268D01*
X112395000Y-91265000D02*
X112395000Y-93091000D01*
X112395000Y-93091000D02*
X112395000Y-93345000D01*
X112395000Y-93345000D02*
X112903000Y-93853000D01*
X112903000Y-93853000D02*
X112903000Y-94580573D01*
X112903000Y-94580573D02*
X112207990Y-95275583D01*
X112395000Y-91313000D02*
X112395000Y-91265000D01*
X111617000Y-90043000D02*
X111617000Y-94684592D01*
X111617000Y-94684592D02*
X111642305Y-94709897D01*
X111642305Y-94624305D02*
X111642305Y-94709897D01*
X109591695Y-94709897D02*
X109591695Y-90068305D01*
X109591695Y-90068305D02*
X109617000Y-90043000D01*
X109601000Y-90059000D02*
X109617000Y-90043000D01*
X110617000Y-103654798D02*
X109591695Y-104680103D01*
X110617000Y-103654798D02*
X110617000Y-96393000D01*
X105283000Y-109855000D02*
X105283000Y-107315000D01*
X105283000Y-107315000D02*
X104938751Y-106970751D01*
X105217000Y-107249000D02*
X104938751Y-106970751D01*
X105217000Y-109789000D02*
X105283000Y-109855000D01*
X109026010Y-104114417D02*
X107823000Y-105317427D01*
X107823000Y-105317427D02*
X107823000Y-109855000D01*
X108460324Y-103548732D02*
X109544056Y-102465000D01*
X109544056Y-102465000D02*
X109895000Y-102465000D01*
D22*
X115602103Y-98669695D02*
X116373408Y-99441000D01*
X122047000Y-104013000D02*
X122157000Y-104123000D01*
X116373408Y-99441000D02*
X116459000Y-99441000D01*
X122157000Y-104123000D02*
X123015000Y-104123000D01*
D20*
X116295000Y-107065000D02*
X115095000Y-107065000D01*
X113126787Y-106396787D02*
X113795000Y-107065000D01*
X113795000Y-107065000D02*
X115095000Y-107065000D01*
X113126787Y-106396787D02*
X113126787Y-105033214D01*
D22*
X112207990Y-104114417D02*
X113126787Y-105033214D01*
X113126787Y-105033214D02*
X113157000Y-105063427D01*
X122047000Y-107061000D02*
X122905000Y-107061000D01*
X122905000Y-107061000D02*
X123015000Y-107171000D01*
X113905047Y-96972639D02*
X114738686Y-96139000D01*
X122047000Y-100965000D02*
X122157000Y-101075000D01*
X114738686Y-96139000D02*
X115443000Y-96139000D01*
X122157000Y-101075000D02*
X123015000Y-101075000D01*
D23*
G36*
X119285000Y-87265000D02*
X119305000Y-87365546D01*
X119305000Y-90551000D01*
X119359046Y-90822705D01*
X119460347Y-90974314D01*
X119334162Y-91278201D01*
X119333838Y-91650167D01*
X119443359Y-91915228D01*
X119334162Y-92178201D01*
X119333838Y-92550167D01*
X119456326Y-92846612D01*
X119360162Y-93078201D01*
X119359838Y-93450167D01*
X119501883Y-93793943D01*
X119764673Y-94057192D01*
X120108201Y-94199838D01*
X120480167Y-94200162D01*
X120594857Y-94152773D01*
X120708201Y-94199838D01*
X120888070Y-94199995D01*
X121013110Y-94285431D01*
X121158000Y-94314772D01*
X121158000Y-95634000D01*
X121138690Y-95634000D01*
X120905301Y-95730673D01*
X120726673Y-95909302D01*
X120630000Y-96142691D01*
X120630000Y-97233250D01*
X120788750Y-97392000D01*
X121158000Y-97392000D01*
X121158000Y-97646000D01*
X120788750Y-97646000D01*
X120630000Y-97804750D01*
X120630000Y-98895309D01*
X120726673Y-99128698D01*
X120905301Y-99307327D01*
X121138690Y-99404000D01*
X121158000Y-99404000D01*
X121158000Y-99685693D01*
X121029683Y-99709838D01*
X120813559Y-99848910D01*
X120668569Y-100061110D01*
X120617560Y-100313000D01*
X120617560Y-101837000D01*
X120661838Y-102072317D01*
X120800910Y-102288441D01*
X121013110Y-102433431D01*
X121158000Y-102462772D01*
X121158000Y-102733693D01*
X121029683Y-102757838D01*
X120813559Y-102896910D01*
X120668569Y-103109110D01*
X120617560Y-103361000D01*
X120617560Y-104885000D01*
X120625384Y-104926580D01*
X120455799Y-104856162D01*
X120083833Y-104855838D01*
X119740057Y-104997883D01*
X119476808Y-105260673D01*
X119334162Y-105604201D01*
X119333838Y-105976167D01*
X119475883Y-106319943D01*
X119509000Y-106353118D01*
X119509000Y-109855000D01*
X119566852Y-110145839D01*
X119731599Y-110392401D01*
X120009327Y-110670129D01*
X119743295Y-110723046D01*
X119512954Y-110876954D01*
X119359046Y-111107295D01*
X119305000Y-111379000D01*
X119305000Y-112955000D01*
X100405000Y-112955000D01*
X100405000Y-110229383D01*
X101059769Y-110229383D01*
X101262582Y-110720229D01*
X101637796Y-111096098D01*
X102128287Y-111299768D01*
X102659383Y-111300231D01*
X103150229Y-111097418D01*
X103526098Y-110722204D01*
X103729768Y-110231713D01*
X103730231Y-109700617D01*
X103527418Y-109209771D01*
X103180000Y-108861747D01*
X103180000Y-107152656D01*
X103451968Y-106880688D01*
X103494242Y-106909572D01*
X103627490Y-106938477D01*
X103649468Y-107055279D01*
X103791513Y-107269461D01*
X104498000Y-107975948D01*
X104498000Y-108191560D01*
X104419400Y-108191560D01*
X104184083Y-108235838D01*
X103967959Y-108374910D01*
X103822969Y-108587110D01*
X103771960Y-108839000D01*
X103771960Y-110871000D01*
X103816238Y-111106317D01*
X103955310Y-111322441D01*
X104167510Y-111467431D01*
X104419400Y-111518440D01*
X106146600Y-111518440D01*
X106381917Y-111474162D01*
X106598041Y-111335090D01*
X106743031Y-111122890D01*
X106751400Y-111081561D01*
X106763330Y-111099415D01*
X107249511Y-111424271D01*
X107823000Y-111538345D01*
X108396489Y-111424271D01*
X108882670Y-111099415D01*
X109093000Y-110784634D01*
X109303330Y-111099415D01*
X109789511Y-111424271D01*
X110363000Y-111538345D01*
X110936489Y-111424271D01*
X111422670Y-111099415D01*
X111629461Y-110789931D01*
X112000964Y-111205732D01*
X112528209Y-111459709D01*
X112543974Y-111462358D01*
X112776000Y-111341217D01*
X112776000Y-109982000D01*
X112756000Y-109982000D01*
X112756000Y-109728000D01*
X112776000Y-109728000D01*
X112776000Y-108368783D01*
X113030000Y-108368783D01*
X113030000Y-109728000D01*
X113050000Y-109728000D01*
X113050000Y-109982000D01*
X113030000Y-109982000D01*
X113030000Y-111341217D01*
X113262026Y-111462358D01*
X113277791Y-111459709D01*
X113805036Y-111205732D01*
X114176539Y-110789931D01*
X114383330Y-111099415D01*
X114869511Y-111424271D01*
X115443000Y-111538345D01*
X116016489Y-111424271D01*
X116502670Y-111099415D01*
X116713000Y-110784634D01*
X116923330Y-111099415D01*
X117409511Y-111424271D01*
X117983000Y-111538345D01*
X118556489Y-111424271D01*
X119042670Y-111099415D01*
X119367526Y-110613234D01*
X119481600Y-110039745D01*
X119481600Y-109670255D01*
X119367526Y-109096766D01*
X119042670Y-108610585D01*
X118556489Y-108285729D01*
X117983000Y-108171655D01*
X117409511Y-108285729D01*
X116923330Y-108610585D01*
X116713000Y-108925366D01*
X116502670Y-108610585D01*
X116016489Y-108285729D01*
X115443000Y-108171655D01*
X114869511Y-108285729D01*
X114383330Y-108610585D01*
X114176539Y-108920069D01*
X113805036Y-108504268D01*
X113277791Y-108250291D01*
X113262026Y-108247642D01*
X113030000Y-108368783D01*
X112776000Y-108368783D01*
X112543974Y-108247642D01*
X112528209Y-108250291D01*
X112000964Y-108504268D01*
X111629461Y-108920069D01*
X111422670Y-108610585D01*
X110936489Y-108285729D01*
X110363000Y-108171655D01*
X109789511Y-108285729D01*
X109303330Y-108610585D01*
X109093000Y-108925366D01*
X108882670Y-108610585D01*
X108608000Y-108427056D01*
X108608000Y-105743397D01*
X108762655Y-105898052D01*
X108960358Y-106033137D01*
X109211520Y-106087621D01*
X109464091Y-106040097D01*
X109678273Y-105898052D01*
X110617000Y-104959325D01*
X111555727Y-105898052D01*
X111753430Y-106033137D01*
X112004592Y-106087621D01*
X112257163Y-106040097D01*
X112341787Y-105983975D01*
X112341787Y-106396787D01*
X112401542Y-106697194D01*
X112571708Y-106951866D01*
X113239921Y-107620079D01*
X113494594Y-107790245D01*
X113795000Y-107850000D01*
X115757494Y-107850000D01*
X115764673Y-107857192D01*
X116108201Y-107999838D01*
X116480167Y-108000162D01*
X116823943Y-107858117D01*
X117087192Y-107595327D01*
X117229838Y-107251799D01*
X117230162Y-106879833D01*
X117088117Y-106536057D01*
X116825327Y-106272808D01*
X116481799Y-106130162D01*
X116109833Y-106129838D01*
X115766057Y-106271883D01*
X115757926Y-106280000D01*
X115637948Y-106280000D01*
X115918487Y-105999461D01*
X116053572Y-105801758D01*
X116079621Y-105681678D01*
X116081962Y-105681678D01*
X116315351Y-105585005D01*
X116626873Y-105273483D01*
X116626873Y-105048976D01*
X116114751Y-104536854D01*
X116100609Y-104550997D01*
X115921004Y-104371392D01*
X115935146Y-104357249D01*
X116294356Y-104357249D01*
X116806478Y-104869371D01*
X117030985Y-104869371D01*
X117342507Y-104557849D01*
X117439180Y-104324460D01*
X117439180Y-104071841D01*
X117342508Y-103838452D01*
X117190084Y-103686028D01*
X116965577Y-103686028D01*
X116294356Y-104357249D01*
X115935146Y-104357249D01*
X115921004Y-104343107D01*
X116100609Y-104163502D01*
X116114751Y-104177644D01*
X116785972Y-103506423D01*
X116785972Y-103281916D01*
X116633548Y-103129492D01*
X116400159Y-103032820D01*
X116147540Y-103032820D01*
X115914151Y-103129493D01*
X115827372Y-103216272D01*
X115728117Y-102976057D01*
X115552086Y-102799718D01*
X115575234Y-102776570D01*
X115477370Y-102678706D01*
X115553837Y-102664318D01*
X115687486Y-102664318D01*
X115769199Y-102582605D01*
X115777667Y-102562161D01*
X115865457Y-102503939D01*
X116254366Y-102115030D01*
X116328756Y-102006157D01*
X116431143Y-101938254D01*
X116820052Y-101549345D01*
X116955137Y-101351642D01*
X117009621Y-101100480D01*
X116962097Y-100847909D01*
X116820052Y-100633727D01*
X116562416Y-100376091D01*
X116644167Y-100376162D01*
X116987943Y-100234117D01*
X117251192Y-99971327D01*
X117393838Y-99627799D01*
X117394162Y-99255833D01*
X117252117Y-98912057D01*
X116989327Y-98648808D01*
X116914663Y-98617805D01*
X116955137Y-98558570D01*
X117009621Y-98307408D01*
X116962097Y-98054837D01*
X116820052Y-97840655D01*
X116529397Y-97550000D01*
X116709250Y-97550000D01*
X116868000Y-97391250D01*
X116868000Y-96442000D01*
X117122000Y-96442000D01*
X117122000Y-97391250D01*
X117280750Y-97550000D01*
X117496310Y-97550000D01*
X117729699Y-97453327D01*
X117908327Y-97274698D01*
X118005000Y-97041309D01*
X118005000Y-96600750D01*
X117846250Y-96442000D01*
X117122000Y-96442000D01*
X116868000Y-96442000D01*
X116848000Y-96442000D01*
X116848000Y-96188000D01*
X116868000Y-96188000D01*
X116868000Y-96168000D01*
X117122000Y-96168000D01*
X117122000Y-96188000D01*
X117846250Y-96188000D01*
X118005000Y-96029250D01*
X118005000Y-95588691D01*
X117908327Y-95355302D01*
X117906957Y-95353932D01*
X117966431Y-95266890D01*
X118017440Y-95015000D01*
X118017440Y-93815000D01*
X117973162Y-93579683D01*
X117834090Y-93363559D01*
X117621890Y-93218569D01*
X117370000Y-93167560D01*
X116620000Y-93167560D01*
X116543065Y-93182036D01*
X118172076Y-91553025D01*
X118172079Y-91553023D01*
X118342245Y-91298350D01*
X118388123Y-91067709D01*
X118693026Y-90763337D01*
X118886779Y-90296727D01*
X118887220Y-89791490D01*
X118694282Y-89324542D01*
X118337337Y-88966974D01*
X117870727Y-88773221D01*
X117365490Y-88772780D01*
X116898542Y-88965718D01*
X116616822Y-89246947D01*
X116337337Y-88966974D01*
X115870727Y-88773221D01*
X115365490Y-88772780D01*
X114898542Y-88965718D01*
X114616822Y-89246947D01*
X114337337Y-88966974D01*
X113870727Y-88773221D01*
X113365490Y-88772780D01*
X112898542Y-88965718D01*
X112616822Y-89246947D01*
X112337337Y-88966974D01*
X111870727Y-88773221D01*
X111365490Y-88772780D01*
X110898542Y-88965718D01*
X110616822Y-89246947D01*
X110337337Y-88966974D01*
X109870727Y-88773221D01*
X109365490Y-88772780D01*
X108898542Y-88965718D01*
X108616822Y-89246947D01*
X108337337Y-88966974D01*
X107870727Y-88773221D01*
X107365490Y-88772780D01*
X106898542Y-88965718D01*
X106616822Y-89246947D01*
X106337337Y-88966974D01*
X105870727Y-88773221D01*
X105365490Y-88772780D01*
X104898542Y-88965718D01*
X104540974Y-89322663D01*
X104533320Y-89341097D01*
X104505133Y-89334472D01*
X103796605Y-90043000D01*
X103810748Y-90057143D01*
X103631143Y-90236748D01*
X103617000Y-90222605D01*
X103602858Y-90236748D01*
X103423253Y-90057143D01*
X103437395Y-90043000D01*
X102728867Y-89334472D01*
X102499821Y-89388303D01*
X102334319Y-89865664D01*
X102364094Y-90370023D01*
X102499821Y-90697697D01*
X102728865Y-90751527D01*
X102669392Y-90811000D01*
X102590691Y-90811000D01*
X102357302Y-90907673D01*
X102178673Y-91086301D01*
X102082000Y-91319690D01*
X102082000Y-91535250D01*
X102240750Y-91694000D01*
X103190000Y-91694000D01*
X103190000Y-91674000D01*
X103444000Y-91674000D01*
X103444000Y-91694000D01*
X103464000Y-91694000D01*
X103464000Y-91948000D01*
X103444000Y-91948000D01*
X103444000Y-92672250D01*
X103602750Y-92831000D01*
X104043309Y-92831000D01*
X104276698Y-92734327D01*
X104278068Y-92732957D01*
X104365110Y-92792431D01*
X104617000Y-92843440D01*
X105696629Y-92843440D01*
X105696629Y-92997522D01*
X106208751Y-93509644D01*
X106879972Y-92838423D01*
X106879972Y-92613916D01*
X106727548Y-92461492D01*
X106494159Y-92364820D01*
X106430253Y-92364820D01*
X106464440Y-92196000D01*
X106464440Y-91609826D01*
X106502000Y-91421000D01*
X106502000Y-90954030D01*
X106617178Y-90839053D01*
X106896663Y-91119026D01*
X107363273Y-91312779D01*
X107868510Y-91313220D01*
X108335458Y-91120282D01*
X108617178Y-90839053D01*
X108806695Y-91028901D01*
X108806695Y-93462741D01*
X108762655Y-93491948D01*
X108373746Y-93880857D01*
X108313065Y-93969667D01*
X108295081Y-93977116D01*
X108213368Y-94058829D01*
X108213368Y-94195156D01*
X108184177Y-94329722D01*
X108208250Y-94457658D01*
X108098037Y-94433750D01*
X107942899Y-94462941D01*
X107809256Y-94462941D01*
X107727543Y-94544654D01*
X107719076Y-94565096D01*
X107631284Y-94623319D01*
X107242375Y-95012228D01*
X107181695Y-95101037D01*
X107163710Y-95108486D01*
X107021878Y-95250317D01*
X107081997Y-95190199D01*
X107081997Y-95326527D01*
X107052806Y-95461093D01*
X107076879Y-95589029D01*
X107049579Y-95583107D01*
X106796393Y-95329921D01*
X106541721Y-95159755D01*
X106258396Y-95103398D01*
X106247825Y-95092808D01*
X106164005Y-95058003D01*
X106173621Y-95013678D01*
X106175962Y-95013678D01*
X106409351Y-94917005D01*
X106720873Y-94605483D01*
X106720873Y-94380976D01*
X106208751Y-93868854D01*
X106194609Y-93882997D01*
X106015004Y-93703392D01*
X106029146Y-93689249D01*
X106388356Y-93689249D01*
X106900478Y-94201371D01*
X107124985Y-94201371D01*
X107436507Y-93889849D01*
X107533180Y-93656460D01*
X107533180Y-93403841D01*
X107436508Y-93170452D01*
X107284084Y-93018028D01*
X107059577Y-93018028D01*
X106388356Y-93689249D01*
X106029146Y-93689249D01*
X105517024Y-93177127D01*
X105292517Y-93177127D01*
X104980995Y-93488649D01*
X104884322Y-93722038D01*
X104884322Y-93723974D01*
X104780721Y-93743468D01*
X104566539Y-93885513D01*
X103718011Y-94734041D01*
X103582926Y-94931744D01*
X103528442Y-95182906D01*
X103575966Y-95435477D01*
X103718011Y-95649659D01*
X104248341Y-96179989D01*
X104446044Y-96315074D01*
X104697206Y-96369558D01*
X104890977Y-96333098D01*
X104924381Y-96413943D01*
X105187171Y-96677192D01*
X105483244Y-96800133D01*
X105470927Y-96818160D01*
X105368543Y-96886061D01*
X104979634Y-97274970D01*
X104905244Y-97383843D01*
X104802857Y-97451746D01*
X104413948Y-97840655D01*
X104278863Y-98038358D01*
X104224379Y-98289520D01*
X104271903Y-98542091D01*
X104413948Y-98756273D01*
X105352675Y-99695000D01*
X104413948Y-100633727D01*
X104278863Y-100831430D01*
X104224379Y-101082592D01*
X104271903Y-101335163D01*
X104413948Y-101549345D01*
X104802857Y-101938254D01*
X104911733Y-102012646D01*
X104979634Y-102115030D01*
X105368543Y-102503939D01*
X105477416Y-102578329D01*
X105545319Y-102680716D01*
X105934228Y-103069625D01*
X106043102Y-103144016D01*
X106111004Y-103246401D01*
X106316066Y-103451463D01*
X106018608Y-103748920D01*
X105960857Y-103709461D01*
X105709695Y-103654977D01*
X105628645Y-103670227D01*
X105628645Y-103468939D01*
X105531972Y-103235550D01*
X105220450Y-102924028D01*
X104995943Y-102924028D01*
X104430788Y-103489183D01*
X104444931Y-103503326D01*
X104265326Y-103682931D01*
X104251183Y-103668788D01*
X103686028Y-104233943D01*
X103686028Y-104342707D01*
X103445094Y-104290442D01*
X103192523Y-104337966D01*
X102978341Y-104480011D01*
X102448011Y-105010341D01*
X102312926Y-105208044D01*
X102258442Y-105459206D01*
X102305966Y-105711777D01*
X102343686Y-105768654D01*
X101839921Y-106272419D01*
X101669755Y-106527091D01*
X101635919Y-106697194D01*
X101610000Y-106827498D01*
X101610000Y-108862301D01*
X101263902Y-109207796D01*
X101060232Y-109698287D01*
X101059769Y-110229383D01*
X100405000Y-110229383D01*
X100405000Y-103256808D01*
X102873721Y-103256808D01*
X102873721Y-103509427D01*
X102970394Y-103742816D01*
X103281916Y-104054338D01*
X103506423Y-104054338D01*
X104071578Y-103489183D01*
X103400357Y-102817962D01*
X103175850Y-102817962D01*
X102970393Y-103023419D01*
X102873721Y-103256808D01*
X100405000Y-103256808D01*
X100405000Y-102413850D01*
X103579962Y-102413850D01*
X103579962Y-102638357D01*
X104251183Y-103309578D01*
X104816338Y-102744423D01*
X104816338Y-102519916D01*
X104504816Y-102208394D01*
X104271427Y-102111721D01*
X104018808Y-102111721D01*
X103785419Y-102208393D01*
X103579962Y-102413850D01*
X100405000Y-102413850D01*
X100405000Y-92106750D01*
X102082000Y-92106750D01*
X102082000Y-92322310D01*
X102178673Y-92555699D01*
X102357302Y-92734327D01*
X102590691Y-92831000D01*
X103031250Y-92831000D01*
X103190000Y-92672250D01*
X103190000Y-91948000D01*
X102240750Y-91948000D01*
X102082000Y-92106750D01*
X100405000Y-92106750D01*
X100405000Y-89154867D01*
X102908472Y-89154867D01*
X103617000Y-89863395D01*
X104325528Y-89154867D01*
X104271697Y-88925821D01*
X103794336Y-88760319D01*
X103289977Y-88790094D01*
X102962303Y-88925821D01*
X102908472Y-89154867D01*
X100405000Y-89154867D01*
X100405000Y-86075000D01*
X119285000Y-86075000D01*
X119285000Y-87265000D01*
X119285000Y-87265000D01*
G37*
X119285000Y-87265000D02*
X119305000Y-87365546D01*
X119305000Y-90551000D01*
X119359046Y-90822705D01*
X119460347Y-90974314D01*
X119334162Y-91278201D01*
X119333838Y-91650167D01*
X119443359Y-91915228D01*
X119334162Y-92178201D01*
X119333838Y-92550167D01*
X119456326Y-92846612D01*
X119360162Y-93078201D01*
X119359838Y-93450167D01*
X119501883Y-93793943D01*
X119764673Y-94057192D01*
X120108201Y-94199838D01*
X120480167Y-94200162D01*
X120594857Y-94152773D01*
X120708201Y-94199838D01*
X120888070Y-94199995D01*
X121013110Y-94285431D01*
X121158000Y-94314772D01*
X121158000Y-95634000D01*
X121138690Y-95634000D01*
X120905301Y-95730673D01*
X120726673Y-95909302D01*
X120630000Y-96142691D01*
X120630000Y-97233250D01*
X120788750Y-97392000D01*
X121158000Y-97392000D01*
X121158000Y-97646000D01*
X120788750Y-97646000D01*
X120630000Y-97804750D01*
X120630000Y-98895309D01*
X120726673Y-99128698D01*
X120905301Y-99307327D01*
X121138690Y-99404000D01*
X121158000Y-99404000D01*
X121158000Y-99685693D01*
X121029683Y-99709838D01*
X120813559Y-99848910D01*
X120668569Y-100061110D01*
X120617560Y-100313000D01*
X120617560Y-101837000D01*
X120661838Y-102072317D01*
X120800910Y-102288441D01*
X121013110Y-102433431D01*
X121158000Y-102462772D01*
X121158000Y-102733693D01*
X121029683Y-102757838D01*
X120813559Y-102896910D01*
X120668569Y-103109110D01*
X120617560Y-103361000D01*
X120617560Y-104885000D01*
X120625384Y-104926580D01*
X120455799Y-104856162D01*
X120083833Y-104855838D01*
X119740057Y-104997883D01*
X119476808Y-105260673D01*
X119334162Y-105604201D01*
X119333838Y-105976167D01*
X119475883Y-106319943D01*
X119509000Y-106353118D01*
X119509000Y-109855000D01*
X119566852Y-110145839D01*
X119731599Y-110392401D01*
X120009327Y-110670129D01*
X119743295Y-110723046D01*
X119512954Y-110876954D01*
X119359046Y-111107295D01*
X119305000Y-111379000D01*
X119305000Y-112955000D01*
X100405000Y-112955000D01*
X100405000Y-110229383D01*
X101059769Y-110229383D01*
X101262582Y-110720229D01*
X101637796Y-111096098D01*
X102128287Y-111299768D01*
X102659383Y-111300231D01*
X103150229Y-111097418D01*
X103526098Y-110722204D01*
X103729768Y-110231713D01*
X103730231Y-109700617D01*
X103527418Y-109209771D01*
X103180000Y-108861747D01*
X103180000Y-107152656D01*
X103451968Y-106880688D01*
X103494242Y-106909572D01*
X103627490Y-106938477D01*
X103649468Y-107055279D01*
X103791513Y-107269461D01*
X104498000Y-107975948D01*
X104498000Y-108191560D01*
X104419400Y-108191560D01*
X104184083Y-108235838D01*
X103967959Y-108374910D01*
X103822969Y-108587110D01*
X103771960Y-108839000D01*
X103771960Y-110871000D01*
X103816238Y-111106317D01*
X103955310Y-111322441D01*
X104167510Y-111467431D01*
X104419400Y-111518440D01*
X106146600Y-111518440D01*
X106381917Y-111474162D01*
X106598041Y-111335090D01*
X106743031Y-111122890D01*
X106751400Y-111081561D01*
X106763330Y-111099415D01*
X107249511Y-111424271D01*
X107823000Y-111538345D01*
X108396489Y-111424271D01*
X108882670Y-111099415D01*
X109093000Y-110784634D01*
X109303330Y-111099415D01*
X109789511Y-111424271D01*
X110363000Y-111538345D01*
X110936489Y-111424271D01*
X111422670Y-111099415D01*
X111629461Y-110789931D01*
X112000964Y-111205732D01*
X112528209Y-111459709D01*
X112543974Y-111462358D01*
X112776000Y-111341217D01*
X112776000Y-109982000D01*
X112756000Y-109982000D01*
X112756000Y-109728000D01*
X112776000Y-109728000D01*
X112776000Y-108368783D01*
X113030000Y-108368783D01*
X113030000Y-109728000D01*
X113050000Y-109728000D01*
X113050000Y-109982000D01*
X113030000Y-109982000D01*
X113030000Y-111341217D01*
X113262026Y-111462358D01*
X113277791Y-111459709D01*
X113805036Y-111205732D01*
X114176539Y-110789931D01*
X114383330Y-111099415D01*
X114869511Y-111424271D01*
X115443000Y-111538345D01*
X116016489Y-111424271D01*
X116502670Y-111099415D01*
X116713000Y-110784634D01*
X116923330Y-111099415D01*
X117409511Y-111424271D01*
X117983000Y-111538345D01*
X118556489Y-111424271D01*
X119042670Y-111099415D01*
X119367526Y-110613234D01*
X119481600Y-110039745D01*
X119481600Y-109670255D01*
X119367526Y-109096766D01*
X119042670Y-108610585D01*
X118556489Y-108285729D01*
X117983000Y-108171655D01*
X117409511Y-108285729D01*
X116923330Y-108610585D01*
X116713000Y-108925366D01*
X116502670Y-108610585D01*
X116016489Y-108285729D01*
X115443000Y-108171655D01*
X114869511Y-108285729D01*
X114383330Y-108610585D01*
X114176539Y-108920069D01*
X113805036Y-108504268D01*
X113277791Y-108250291D01*
X113262026Y-108247642D01*
X113030000Y-108368783D01*
X112776000Y-108368783D01*
X112543974Y-108247642D01*
X112528209Y-108250291D01*
X112000964Y-108504268D01*
X111629461Y-108920069D01*
X111422670Y-108610585D01*
X110936489Y-108285729D01*
X110363000Y-108171655D01*
X109789511Y-108285729D01*
X109303330Y-108610585D01*
X109093000Y-108925366D01*
X108882670Y-108610585D01*
X108608000Y-108427056D01*
X108608000Y-105743397D01*
X108762655Y-105898052D01*
X108960358Y-106033137D01*
X109211520Y-106087621D01*
X109464091Y-106040097D01*
X109678273Y-105898052D01*
X110617000Y-104959325D01*
X111555727Y-105898052D01*
X111753430Y-106033137D01*
X112004592Y-106087621D01*
X112257163Y-106040097D01*
X112341787Y-105983975D01*
X112341787Y-106396787D01*
X112401542Y-106697194D01*
X112571708Y-106951866D01*
X113239921Y-107620079D01*
X113494594Y-107790245D01*
X113795000Y-107850000D01*
X115757494Y-107850000D01*
X115764673Y-107857192D01*
X116108201Y-107999838D01*
X116480167Y-108000162D01*
X116823943Y-107858117D01*
X117087192Y-107595327D01*
X117229838Y-107251799D01*
X117230162Y-106879833D01*
X117088117Y-106536057D01*
X116825327Y-106272808D01*
X116481799Y-106130162D01*
X116109833Y-106129838D01*
X115766057Y-106271883D01*
X115757926Y-106280000D01*
X115637948Y-106280000D01*
X115918487Y-105999461D01*
X116053572Y-105801758D01*
X116079621Y-105681678D01*
X116081962Y-105681678D01*
X116315351Y-105585005D01*
X116626873Y-105273483D01*
X116626873Y-105048976D01*
X116114751Y-104536854D01*
X116100609Y-104550997D01*
X115921004Y-104371392D01*
X115935146Y-104357249D01*
X116294356Y-104357249D01*
X116806478Y-104869371D01*
X117030985Y-104869371D01*
X117342507Y-104557849D01*
X117439180Y-104324460D01*
X117439180Y-104071841D01*
X117342508Y-103838452D01*
X117190084Y-103686028D01*
X116965577Y-103686028D01*
X116294356Y-104357249D01*
X115935146Y-104357249D01*
X115921004Y-104343107D01*
X116100609Y-104163502D01*
X116114751Y-104177644D01*
X116785972Y-103506423D01*
X116785972Y-103281916D01*
X116633548Y-103129492D01*
X116400159Y-103032820D01*
X116147540Y-103032820D01*
X115914151Y-103129493D01*
X115827372Y-103216272D01*
X115728117Y-102976057D01*
X115552086Y-102799718D01*
X115575234Y-102776570D01*
X115477370Y-102678706D01*
X115553837Y-102664318D01*
X115687486Y-102664318D01*
X115769199Y-102582605D01*
X115777667Y-102562161D01*
X115865457Y-102503939D01*
X116254366Y-102115030D01*
X116328756Y-102006157D01*
X116431143Y-101938254D01*
X116820052Y-101549345D01*
X116955137Y-101351642D01*
X117009621Y-101100480D01*
X116962097Y-100847909D01*
X116820052Y-100633727D01*
X116562416Y-100376091D01*
X116644167Y-100376162D01*
X116987943Y-100234117D01*
X117251192Y-99971327D01*
X117393838Y-99627799D01*
X117394162Y-99255833D01*
X117252117Y-98912057D01*
X116989327Y-98648808D01*
X116914663Y-98617805D01*
X116955137Y-98558570D01*
X117009621Y-98307408D01*
X116962097Y-98054837D01*
X116820052Y-97840655D01*
X116529397Y-97550000D01*
X116709250Y-97550000D01*
X116868000Y-97391250D01*
X116868000Y-96442000D01*
X117122000Y-96442000D01*
X117122000Y-97391250D01*
X117280750Y-97550000D01*
X117496310Y-97550000D01*
X117729699Y-97453327D01*
X117908327Y-97274698D01*
X118005000Y-97041309D01*
X118005000Y-96600750D01*
X117846250Y-96442000D01*
X117122000Y-96442000D01*
X116868000Y-96442000D01*
X116848000Y-96442000D01*
X116848000Y-96188000D01*
X116868000Y-96188000D01*
X116868000Y-96168000D01*
X117122000Y-96168000D01*
X117122000Y-96188000D01*
X117846250Y-96188000D01*
X118005000Y-96029250D01*
X118005000Y-95588691D01*
X117908327Y-95355302D01*
X117906957Y-95353932D01*
X117966431Y-95266890D01*
X118017440Y-95015000D01*
X118017440Y-93815000D01*
X117973162Y-93579683D01*
X117834090Y-93363559D01*
X117621890Y-93218569D01*
X117370000Y-93167560D01*
X116620000Y-93167560D01*
X116543065Y-93182036D01*
X118172076Y-91553025D01*
X118172079Y-91553023D01*
X118342245Y-91298350D01*
X118388123Y-91067709D01*
X118693026Y-90763337D01*
X118886779Y-90296727D01*
X118887220Y-89791490D01*
X118694282Y-89324542D01*
X118337337Y-88966974D01*
X117870727Y-88773221D01*
X117365490Y-88772780D01*
X116898542Y-88965718D01*
X116616822Y-89246947D01*
X116337337Y-88966974D01*
X115870727Y-88773221D01*
X115365490Y-88772780D01*
X114898542Y-88965718D01*
X114616822Y-89246947D01*
X114337337Y-88966974D01*
X113870727Y-88773221D01*
X113365490Y-88772780D01*
X112898542Y-88965718D01*
X112616822Y-89246947D01*
X112337337Y-88966974D01*
X111870727Y-88773221D01*
X111365490Y-88772780D01*
X110898542Y-88965718D01*
X110616822Y-89246947D01*
X110337337Y-88966974D01*
X109870727Y-88773221D01*
X109365490Y-88772780D01*
X108898542Y-88965718D01*
X108616822Y-89246947D01*
X108337337Y-88966974D01*
X107870727Y-88773221D01*
X107365490Y-88772780D01*
X106898542Y-88965718D01*
X106616822Y-89246947D01*
X106337337Y-88966974D01*
X105870727Y-88773221D01*
X105365490Y-88772780D01*
X104898542Y-88965718D01*
X104540974Y-89322663D01*
X104533320Y-89341097D01*
X104505133Y-89334472D01*
X103796605Y-90043000D01*
X103810748Y-90057143D01*
X103631143Y-90236748D01*
X103617000Y-90222605D01*
X103602858Y-90236748D01*
X103423253Y-90057143D01*
X103437395Y-90043000D01*
X102728867Y-89334472D01*
X102499821Y-89388303D01*
X102334319Y-89865664D01*
X102364094Y-90370023D01*
X102499821Y-90697697D01*
X102728865Y-90751527D01*
X102669392Y-90811000D01*
X102590691Y-90811000D01*
X102357302Y-90907673D01*
X102178673Y-91086301D01*
X102082000Y-91319690D01*
X102082000Y-91535250D01*
X102240750Y-91694000D01*
X103190000Y-91694000D01*
X103190000Y-91674000D01*
X103444000Y-91674000D01*
X103444000Y-91694000D01*
X103464000Y-91694000D01*
X103464000Y-91948000D01*
X103444000Y-91948000D01*
X103444000Y-92672250D01*
X103602750Y-92831000D01*
X104043309Y-92831000D01*
X104276698Y-92734327D01*
X104278068Y-92732957D01*
X104365110Y-92792431D01*
X104617000Y-92843440D01*
X105696629Y-92843440D01*
X105696629Y-92997522D01*
X106208751Y-93509644D01*
X106879972Y-92838423D01*
X106879972Y-92613916D01*
X106727548Y-92461492D01*
X106494159Y-92364820D01*
X106430253Y-92364820D01*
X106464440Y-92196000D01*
X106464440Y-91609826D01*
X106502000Y-91421000D01*
X106502000Y-90954030D01*
X106617178Y-90839053D01*
X106896663Y-91119026D01*
X107363273Y-91312779D01*
X107868510Y-91313220D01*
X108335458Y-91120282D01*
X108617178Y-90839053D01*
X108806695Y-91028901D01*
X108806695Y-93462741D01*
X108762655Y-93491948D01*
X108373746Y-93880857D01*
X108313065Y-93969667D01*
X108295081Y-93977116D01*
X108213368Y-94058829D01*
X108213368Y-94195156D01*
X108184177Y-94329722D01*
X108208250Y-94457658D01*
X108098037Y-94433750D01*
X107942899Y-94462941D01*
X107809256Y-94462941D01*
X107727543Y-94544654D01*
X107719076Y-94565096D01*
X107631284Y-94623319D01*
X107242375Y-95012228D01*
X107181695Y-95101037D01*
X107163710Y-95108486D01*
X107021878Y-95250317D01*
X107081997Y-95190199D01*
X107081997Y-95326527D01*
X107052806Y-95461093D01*
X107076879Y-95589029D01*
X107049579Y-95583107D01*
X106796393Y-95329921D01*
X106541721Y-95159755D01*
X106258396Y-95103398D01*
X106247825Y-95092808D01*
X106164005Y-95058003D01*
X106173621Y-95013678D01*
X106175962Y-95013678D01*
X106409351Y-94917005D01*
X106720873Y-94605483D01*
X106720873Y-94380976D01*
X106208751Y-93868854D01*
X106194609Y-93882997D01*
X106015004Y-93703392D01*
X106029146Y-93689249D01*
X106388356Y-93689249D01*
X106900478Y-94201371D01*
X107124985Y-94201371D01*
X107436507Y-93889849D01*
X107533180Y-93656460D01*
X107533180Y-93403841D01*
X107436508Y-93170452D01*
X107284084Y-93018028D01*
X107059577Y-93018028D01*
X106388356Y-93689249D01*
X106029146Y-93689249D01*
X105517024Y-93177127D01*
X105292517Y-93177127D01*
X104980995Y-93488649D01*
X104884322Y-93722038D01*
X104884322Y-93723974D01*
X104780721Y-93743468D01*
X104566539Y-93885513D01*
X103718011Y-94734041D01*
X103582926Y-94931744D01*
X103528442Y-95182906D01*
X103575966Y-95435477D01*
X103718011Y-95649659D01*
X104248341Y-96179989D01*
X104446044Y-96315074D01*
X104697206Y-96369558D01*
X104890977Y-96333098D01*
X104924381Y-96413943D01*
X105187171Y-96677192D01*
X105483244Y-96800133D01*
X105470927Y-96818160D01*
X105368543Y-96886061D01*
X104979634Y-97274970D01*
X104905244Y-97383843D01*
X104802857Y-97451746D01*
X104413948Y-97840655D01*
X104278863Y-98038358D01*
X104224379Y-98289520D01*
X104271903Y-98542091D01*
X104413948Y-98756273D01*
X105352675Y-99695000D01*
X104413948Y-100633727D01*
X104278863Y-100831430D01*
X104224379Y-101082592D01*
X104271903Y-101335163D01*
X104413948Y-101549345D01*
X104802857Y-101938254D01*
X104911733Y-102012646D01*
X104979634Y-102115030D01*
X105368543Y-102503939D01*
X105477416Y-102578329D01*
X105545319Y-102680716D01*
X105934228Y-103069625D01*
X106043102Y-103144016D01*
X106111004Y-103246401D01*
X106316066Y-103451463D01*
X106018608Y-103748920D01*
X105960857Y-103709461D01*
X105709695Y-103654977D01*
X105628645Y-103670227D01*
X105628645Y-103468939D01*
X105531972Y-103235550D01*
X105220450Y-102924028D01*
X104995943Y-102924028D01*
X104430788Y-103489183D01*
X104444931Y-103503326D01*
X104265326Y-103682931D01*
X104251183Y-103668788D01*
X103686028Y-104233943D01*
X103686028Y-104342707D01*
X103445094Y-104290442D01*
X103192523Y-104337966D01*
X102978341Y-104480011D01*
X102448011Y-105010341D01*
X102312926Y-105208044D01*
X102258442Y-105459206D01*
X102305966Y-105711777D01*
X102343686Y-105768654D01*
X101839921Y-106272419D01*
X101669755Y-106527091D01*
X101635919Y-106697194D01*
X101610000Y-106827498D01*
X101610000Y-108862301D01*
X101263902Y-109207796D01*
X101060232Y-109698287D01*
X101059769Y-110229383D01*
X100405000Y-110229383D01*
X100405000Y-103256808D01*
X102873721Y-103256808D01*
X102873721Y-103509427D01*
X102970394Y-103742816D01*
X103281916Y-104054338D01*
X103506423Y-104054338D01*
X104071578Y-103489183D01*
X103400357Y-102817962D01*
X103175850Y-102817962D01*
X102970393Y-103023419D01*
X102873721Y-103256808D01*
X100405000Y-103256808D01*
X100405000Y-102413850D01*
X103579962Y-102413850D01*
X103579962Y-102638357D01*
X104251183Y-103309578D01*
X104816338Y-102744423D01*
X104816338Y-102519916D01*
X104504816Y-102208394D01*
X104271427Y-102111721D01*
X104018808Y-102111721D01*
X103785419Y-102208393D01*
X103579962Y-102413850D01*
X100405000Y-102413850D01*
X100405000Y-92106750D01*
X102082000Y-92106750D01*
X102082000Y-92322310D01*
X102178673Y-92555699D01*
X102357302Y-92734327D01*
X102590691Y-92831000D01*
X103031250Y-92831000D01*
X103190000Y-92672250D01*
X103190000Y-91948000D01*
X102240750Y-91948000D01*
X102082000Y-92106750D01*
X100405000Y-92106750D01*
X100405000Y-89154867D01*
X102908472Y-89154867D01*
X103617000Y-89863395D01*
X104325528Y-89154867D01*
X104271697Y-88925821D01*
X103794336Y-88760319D01*
X103289977Y-88790094D01*
X102962303Y-88925821D01*
X102908472Y-89154867D01*
X100405000Y-89154867D01*
X100405000Y-86075000D01*
X119285000Y-86075000D01*
X119285000Y-87265000D01*
M02*
